<svg id="Capa_1" data-name="Capa 1" xmlns="http://www.w3.org/2000/svg" xmlns:xlink="http://www.w3.org/1999/xlink" viewBox="0 0 1827 16334"><image width="2443" height="21984" transform="translate(-32 -214) scale(0.76)" xlink:href="./data/MAPA_LOTES_R.png"/><g id="MLOC-mymap"><polygon id="LT-47" points="1030 15846 1031 16076 603 16133 604 15902 1030 15846" style="fill:#843e0a;opacity:0.72"/><polygon id="LT-46" points="1028 15618 1031 15840 602 15896 605 15657 1028 15618" style="fill:#843e0a;opacity:0.72"/><polygon id="LT-45" points="1026 15461 1028 15607 606 15653 607 15505 1026 15461" style="fill:#843e0a;opacity:0.72"/><polygon id="LT-44" points="1026 15207 1027 15453 607 15497 609 15257 1026 15207" style="fill:#843e0a;opacity:0.72"/><polygon id="LT-43" points="1027 14960 1026 15196 613 15250 614 15011 1027 14960" style="fill:#843e0a;opacity:0.72"/><polygon id="LT-42" points="1024 14707 1026 14949 614 15002 619 14757 1024 14707" style="fill:#843e0a;opacity:0.72"/><polygon id="LT-41" points="1025 14204 1024 14449 618 14500 619 14247 1025 14204" style="fill:#843e0a;opacity:0.72"/><polygon id="LT-40" points="1024 13945 1023 14199 618 14240 625 13992 1024 13945" style="fill:#843e0a;opacity:0.72"/><polygon id="LT-39" points="1020 13796 1024 13940 622 13983 624 13834 1020 13796" style="fill:#843e0a;opacity:0.72"/><polygon id="LT-38" points="1022 13547 1022 13787 628 13827 627 13589 1022 13547" style="fill:#843e0a;opacity:0.72"/><polygon id="LT-37" points="1020 13305 1022 13538 630 13583 635 13335 1020 13305" style="fill:#843e0a;opacity:0.72"/><polygon id="LT-36" points="1018 12866 1020 13114 631 13151 638 12905 1018 12866" style="fill:#843e0a;opacity:0.72"/><polygon id="LT-35" points="1020 12611 1018 12859 639 12897 641 12647 1020 12611" style="fill:#843e0a;opacity:0.72"/><polygon id="LT-34" points="1017 12353 1019 12605 642 12641 644 12388 1017 12353" style="fill:#843e0a;opacity:0.72"/><polygon id="LT-33" points="1017 12201 1018 12345 647 12380 646 12235 1017 12201" style="fill:#843e0a;opacity:0.72"/><polygon id="LT-32" points="1018 11955 1018 12194 646 12226 648 11987 1018 11955" style="fill:#843e0a;opacity:0.72"/><polygon id="LT-31" points="1014 11524 1015 11767 651 11801 651 11557 1014 11524" style="fill:#843e0a;opacity:0.72"/><polygon id="LT-30" points="1013 11274 1015 11515 653 11549 657 11310 1013 11274" style="fill:#843e0a;opacity:0.72"/><polygon id="LT-29" points="1012 10995 1014 11264 659 11301 660 11043 1012 10995" style="fill:#843e0a;opacity:0.72"/><polygon id="LT-28" points="1014 10743 1014 10986 662 11034 664 10784 1014 10743" style="fill:#843e0a;opacity:0.72"/><polygon id="LT-27" points="1010 10586 1013 10735 666 10776 666 10626 1010 10586" style="fill:#843e0a;opacity:0.72"/><polygon id="LT-26" points="1010 10142 1011 10398 668 10439 670 10157 1010 10142" style="fill:#843e0a;opacity:0.72"/><polygon id="LT-25" points="1011 9857 1011 10132 671 10153 674 9876 1011 9857" style="fill:#843e0a;opacity:0.72"/><polygon id="LT-24" points="1009 9577 1008 9850 673 9870 676 9594 1009 9577" style="fill:#843e0a;opacity:0.72"/><polygon id="LT-23" points="1011 9292 1010 9567 678 9590 683 9296 1011 9292" style="fill:#843e0a;opacity:0.72"/><polygon id="LT-22" points="1006 8963 1006 9103 684 9109 684 8963 1006 8963" style="fill:#843e0a;opacity:0.72"/><polygon id="LT-21" points="1006 8675 1005 8955 686 8957 689 8705 1006 8675" style="fill:#843e0a;opacity:0.72"/><polygon id="LT-20" points="1005 8400 1006 8667 691 8697 691 8434 1005 8400" style="fill:#843e0a;opacity:0.72"/><polygon id="LT-19" points="1004 8127 1005 8392 692 8426 695 8154 1004 8127" style="fill:#843e0a;opacity:0.72"/><polygon id="LT-18" points="1003 7843 1003 8114 698 8144 699 7870 1003 7843" style="fill:#843e0a;opacity:0.72"/><polygon id="LT-17" points="1003 7576 1001 7837 700 7863 703 7602 1003 7576" style="fill:#843e0a;opacity:0.72"/><polygon id="LT-16" points="1000 7280 1001 7565 703 7592 706 7309 1000 7280" style="fill:#843e0a;opacity:0.72"/><polygon id="LT-15" points="999 6822 1001 7126 707 7152 711 6876 999 6822" style="fill:#843e0a;opacity:0.72"/><polygon id="LT-14" points="1000 6501 1001 6813 712 6869 713 6557 1000 6501" style="fill:#843e0a;opacity:0.72"/><polygon id="LT-13" points="996 6178 1000 6494 714 6549 720 6199 996 6178" style="fill:#843e0a;opacity:0.72"/><polygon id="LT-12" points="998 5854 996 6173 719 6194 725 5872 998 5854" style="fill:#843e0a;opacity:0.72"/><polygon id="LT-11" points="994 5524 995 5847 728 5869 732 5547 994 5524" style="fill:#843e0a;opacity:0.72"/><polygon id="LT-10" points="994 5101 993 5518 731 5542 738 5089 994 5101" style="fill:#843e0a;opacity:0.72"/><polygon id="LT-9" points="992 4577 994 5095 738 5083 741 4817 941 4578 992 4577" style="fill:#843e0a;opacity:0.72"/><polygon id="LT-8" points="989 3561 992 4571 940 4571 868 3560 989 3561" style="fill:#843e0a;opacity:0.72"/><polygon id="LT-7" points="986 2887 989 3553 866 3552 818 2890 986 2887" style="fill:#843e0a;opacity:0.72"/><polygon id="LT-6" points="985 2277 987 2879 820 2883 775 2287 985 2277" style="fill:#843e0a;opacity:0.72"/><polygon id="LT-5" points="984 1767 984 2268 774 2281 737 1776 984 1767" style="fill:#843e0a;opacity:0.72"/><polygon id="LT-4" points="981 1324 705 1335 737 1771 983 1762 981 1324" style="fill:#843e0a;opacity:0.72"/><polygon id="LT-3" points="982 913 981 1316 704 1326 675 934 982 913" style="fill:#843e0a;opacity:0.72"/><polygon id="LT-2" points="979 538 983 907 673 929 645 562 979 538" style="fill:#843e0a;opacity:0.72"/><polygon id="LT-1" points="977 109 980 530 647 556 622 220 616 137 977 109" style="fill:#843e0a;opacity:0.72"/></g><g id="MNOIT-mymap"><text transform="translate(694 16009)" style="font-size:75.70767211914062px;fill:#fff;font-family:VerdanaPro, Verdana Pro;letter-spacing:-0.10839857803303707em">L<tspan x="34" y="0" style="letter-spacing:-0.05859345554982709em">T</tspan><tspan x="76" y="0" style="letter-spacing:8.061951258248888e-7em">-47</tspan></text><text transform="translate(691 15781)" style="font-size:75.70767211914062px;fill:#fff;font-family:VerdanaPro, Verdana Pro;letter-spacing:-0.10839857803303707em">L<tspan x="34" y="0" style="letter-spacing:-0.05859345554982709em">T</tspan><tspan x="76" y="0" style="letter-spacing:8.061951258248888e-7em">-46</tspan></text><text transform="translate(705 15574)" style="font-size:75.70767211914062px;fill:#fff;font-family:VerdanaPro, Verdana Pro;letter-spacing:-0.10839857803303707em">L<tspan x="34" y="0" style="letter-spacing:-0.05859345554982709em">T</tspan><tspan x="76" y="0" style="letter-spacing:8.061951258248888e-7em">-45</tspan></text><text transform="translate(698 15372)" style="font-size:75.70767211914062px;fill:#fff;font-family:VerdanaPro, Verdana Pro;letter-spacing:-0.10839857803303707em">L<tspan x="34" y="0" style="letter-spacing:-0.05859345554982709em">T</tspan><tspan x="76" y="0" style="letter-spacing:8.061951258248888e-7em">-44</tspan></text><text transform="translate(701 15130)" style="font-size:75.70767211914062px;fill:#fff;font-family:VerdanaPro, Verdana Pro;letter-spacing:-0.10839857803303707em">L<tspan x="34" y="0" style="letter-spacing:-0.05859345554982709em">T</tspan><tspan x="76" y="0" style="letter-spacing:-8.061951258248888e-7em">-43</tspan></text><text transform="translate(701 14880)" style="font-size:75.70767211914062px;fill:#fff;font-family:VerdanaPro, Verdana Pro;letter-spacing:-0.10839857803303707em">L<tspan x="34" y="0" style="letter-spacing:-0.05859345554982709em">T</tspan><tspan x="76" y="0" style="letter-spacing:-8.061951258248888e-7em">-42</tspan></text><text transform="translate(695 14388)" style="font-size:75.70767211914062px;fill:#fff;font-family:VerdanaPro, Verdana Pro;letter-spacing:-0.10839857803303707em">L<tspan x="34" y="0" style="letter-spacing:-0.05859345554982709em">T</tspan><tspan x="76" y="0" style="letter-spacing:-8.061951258248888e-7em">-41</tspan></text><text transform="translate(694 14122)" style="font-size:75.70767211914062px;fill:#fff;font-family:VerdanaPro, Verdana Pro;letter-spacing:-0.10839857803303707em">L<tspan x="34" y="0" style="letter-spacing:-0.05859345554982709em">T</tspan><tspan x="76" y="0" style="letter-spacing:8.061951258248888e-7em">-40</tspan></text><text transform="translate(704 13914)" style="font-size:75.70767211914062px;fill:#fff;font-family:VerdanaPro, Verdana Pro;letter-spacing:-0.10839857803303707em">L<tspan x="34" y="0" style="letter-spacing:-0.05859345554982709em">T</tspan><tspan x="76" y="0" style="letter-spacing:-8.061951258248888e-7em">-39</tspan></text><text transform="translate(702 13710)" style="font-size:75.70767211914062px;fill:#fff;font-family:VerdanaPro, Verdana Pro;letter-spacing:-0.10839857803303707em">L<tspan x="34" y="0" style="letter-spacing:-0.05859345554982709em">T</tspan><tspan x="76" y="0" style="letter-spacing:-8.061951258248888e-7em">-38</tspan></text><text transform="translate(702 13460)" style="font-size:75.70767211914062px;fill:#fff;font-family:VerdanaPro, Verdana Pro;letter-spacing:-0.10839857803303707em">L<tspan x="34" y="0" style="letter-spacing:-0.05859345554982709em">T</tspan><tspan x="76" y="0" style="letter-spacing:-8.061951258248888e-7em">-37</tspan></text><text transform="translate(714 13038)" style="font-size:75.70767211914062px;fill:#fff;font-family:VerdanaPro, Verdana Pro;letter-spacing:-0.10839857803303707em">L<tspan x="34" y="0" style="letter-spacing:-0.05859345554982709em">T</tspan><tspan x="76" y="0" style="letter-spacing:-8.061951258248888e-7em">-36</tspan></text><text transform="translate(734 12771)" style="font-size:75.70767211914062px;fill:#fff;font-family:VerdanaPro, Verdana Pro;letter-spacing:-0.10839857803303707em">L<tspan x="34" y="0" style="letter-spacing:-0.05859345554982709em">T</tspan><tspan x="76" y="0" style="letter-spacing:-0.0000016123902516497775em">-35</tspan></text><text transform="translate(713 12525)" style="font-size:75.70767211914062px;fill:#fff;font-family:VerdanaPro, Verdana Pro;letter-spacing:-0.10839857803303707em">L<tspan x="34" y="0" style="letter-spacing:-0.05859345554982709em">T</tspan><tspan x="76" y="0" style="letter-spacing:8.061951258248888e-7em">-34</tspan></text><text transform="translate(721 12315)" style="font-size:75.70767211914062px;fill:#fff;font-family:VerdanaPro, Verdana Pro;letter-spacing:-0.10839857803303707em">L<tspan x="34" y="0" style="letter-spacing:-0.05859345554982709em">T</tspan><tspan x="76" y="0" style="letter-spacing:8.061951258248888e-7em">-33</tspan></text><text transform="translate(716 12118)" style="font-size:75.70767211914062px;fill:#fff;font-family:VerdanaPro, Verdana Pro;letter-spacing:-0.10839857803303707em">L<tspan x="34" y="0" style="letter-spacing:-0.05859345554982709em">T</tspan><tspan x="76" y="0" style="letter-spacing:-8.061951258248888e-7em">-32</tspan></text><text transform="translate(734 11687)" style="font-size:75.70767211914062px;fill:#fff;font-family:VerdanaPro, Verdana Pro;letter-spacing:-0.10839857803303707em">L<tspan x="34" y="0" style="letter-spacing:-0.05859345554982709em">T</tspan><tspan x="76" y="0" style="letter-spacing:0.0000016123902516497775em">-31</tspan></text><text transform="translate(737 11437)" style="font-size:75.70767211914062px;fill:#fff;font-family:VerdanaPro, Verdana Pro;letter-spacing:-0.10839857803303707em">L<tspan x="34" y="0" style="letter-spacing:-0.05859345554982709em">T</tspan><tspan x="76" y="0" style="letter-spacing:-0.0000016123902516497775em">-30</tspan></text><text transform="translate(731 11176)" style="font-size:75.70767211914062px;fill:#fff;font-family:VerdanaPro, Verdana Pro"><tspan style="letter-spacing:-0.10839857803303707em">L</tspan><tspan x="34" y="0" style="letter-spacing:-0.05859345554982709em">T</tspan><tspan x="76" y="0">-29</tspan></text><text transform="translate(732 10905)" style="font-size:75.70767211914062px;fill:#fff;font-family:VerdanaPro, Verdana Pro"><tspan style="letter-spacing:-0.10839857803303707em">L</tspan><tspan x="34" y="0" style="letter-spacing:-0.05859345554982709em">T</tspan><tspan x="76" y="0">-28</tspan></text><text transform="translate(729 10702)" style="font-size:75.70767211914062px;fill:#fff;font-family:VerdanaPro, Verdana Pro;letter-spacing:-0.10839857803303707em">L<tspan x="34" y="0" style="letter-spacing:-0.05859345554982709em">T</tspan><tspan x="76" y="0" style="letter-spacing:0.0000016123902516497775em">-27</tspan></text><text transform="translate(732 10312)" style="font-size:75.70767211914062px;fill:#fff;font-family:VerdanaPro, Verdana Pro"><tspan style="letter-spacing:-0.10839857803303707em">L</tspan><tspan x="34" y="0" style="letter-spacing:-0.05859345554982709em">T</tspan><tspan x="76" y="0">-26</tspan></text><text transform="translate(739 10028)" style="font-size:75.70767211914062px;fill:#fff;font-family:VerdanaPro, Verdana Pro;letter-spacing:-0.10839857803303707em">L<tspan x="34" y="0" style="letter-spacing:-0.05859345554982709em">T</tspan><tspan x="76" y="0" style="letter-spacing:0.0000016123902516497775em">-25</tspan></text><text transform="translate(739 9750)" style="font-size:75.70767211914062px;fill:#fff;font-family:VerdanaPro, Verdana Pro"><tspan style="letter-spacing:-0.10839857803303707em">L</tspan><tspan x="34" y="0" style="letter-spacing:-0.05859345554982709em">T</tspan><tspan x="76" y="0">-24</tspan></text><text transform="translate(735 9463)" style="font-size:75.70767211914062px;fill:#fff;font-family:VerdanaPro, Verdana Pro"><tspan style="letter-spacing:-0.10839857803303707em">L</tspan><tspan x="34" y="0" style="letter-spacing:-0.05859345554982709em">T</tspan><tspan x="76" y="0">-23</tspan></text><text transform="translate(735 9068)" style="font-size:75.70767211914062px;fill:#fff;font-family:VerdanaPro, Verdana Pro"><tspan style="letter-spacing:-0.10839857803303707em">L</tspan><tspan x="34" y="0" style="letter-spacing:-0.05859345554982709em">T</tspan><tspan x="76" y="0">-22</tspan></text><text transform="translate(743 8846)" style="font-size:75.70767211914062px;fill:#fff;font-family:VerdanaPro, Verdana Pro"><tspan style="letter-spacing:-0.10839857803303707em">L</tspan><tspan x="34" y="0" style="letter-spacing:-0.05859345554982709em">T</tspan><tspan x="76" y="0">-21</tspan></text><text transform="translate(742 8576)" style="font-size:75.70767211914062px;fill:#fff;font-family:VerdanaPro, Verdana Pro"><tspan style="letter-spacing:-0.10839857803303707em">L</tspan><tspan x="34" y="0" style="letter-spacing:-0.05859345554982709em">T</tspan><tspan x="76" y="0">-20</tspan></text><text transform="translate(741 8298)" style="font-size:75.70767211914062px;fill:#fff;font-family:VerdanaPro, Verdana Pro"><tspan style="letter-spacing:-0.10839857803303707em">L</tspan><tspan x="34" y="0" style="letter-spacing:-0.05859345554982709em">T</tspan><tspan x="76" y="0">-19</tspan></text><text transform="translate(746 8019)" style="font-size:75.70767211914062px;fill:#fff;font-family:VerdanaPro, Verdana Pro;letter-spacing:-0.10839857803303707em">L<tspan x="34" y="0" style="letter-spacing:-0.05859345554982709em">T</tspan><tspan x="76" y="0" style="letter-spacing:-0.0000016123902516497775em">-18</tspan></text><text transform="translate(759 7741)" style="font-size:75.70767211914062px;fill:#fff;font-family:VerdanaPro, Verdana Pro"><tspan style="letter-spacing:-0.10839857803303707em">L</tspan><tspan x="34" y="0" style="letter-spacing:-0.05859345554982709em">T</tspan><tspan x="76" y="0">-17</tspan></text><text transform="translate(747 7473)" style="font-size:75.70767211914062px;fill:#fff;font-family:VerdanaPro, Verdana Pro;letter-spacing:-0.10839857803303707em">L<tspan x="34" y="0" style="letter-spacing:-0.05859345554982709em">T</tspan><tspan x="76" y="0" style="letter-spacing:-0.0000016123902516497775em">-16</tspan></text><text transform="translate(748 7022)" style="font-size:75.70767211914062px;fill:#fff;font-family:VerdanaPro, Verdana Pro;letter-spacing:-0.10839857803303707em">L<tspan x="34" y="0" style="letter-spacing:-0.05859345554982709em">T</tspan><tspan x="76" y="0" style="letter-spacing:-0.0000016123902516497775em">-15</tspan></text><text transform="translate(745 6712)" style="font-size:75.70767211914062px;fill:#fff;font-family:VerdanaPro, Verdana Pro;letter-spacing:-0.10839857803303707em">L<tspan x="34" y="0" style="letter-spacing:-0.05859345554982709em">T</tspan><tspan x="76" y="0" style="letter-spacing:-0.0000016123902516497775em">-14</tspan></text><text transform="translate(759 6384)" style="font-size:75.70767211914062px;fill:#fff;font-family:VerdanaPro, Verdana Pro;letter-spacing:-0.10839857803303707em">L<tspan x="34" y="0" style="letter-spacing:-0.05859345554982709em">T</tspan><tspan x="76" y="0" style="letter-spacing:-0.0000016123902516497775em">-13</tspan></text><text transform="translate(764 6054)" style="font-size:75.70767211914062px;fill:#fff;font-family:VerdanaPro, Verdana Pro"><tspan style="letter-spacing:-0.10839857803303707em">L</tspan><tspan x="34" y="0" style="letter-spacing:-0.05859345554982709em">T</tspan><tspan x="76" y="0">-12</tspan></text><text transform="translate(761 5710)" style="font-size:75.70767211914062px;fill:#fff;font-family:VerdanaPro, Verdana Pro"><tspan style="letter-spacing:-0.10839857803303707em">L</tspan><tspan x="34" y="0" style="letter-spacing:-0.05859345554982709em">T</tspan><tspan x="76" y="0">-11</tspan></text><text transform="translate(754 5330)" style="font-size:75.70767211914062px;fill:#fff;font-family:VerdanaPro, Verdana Pro;letter-spacing:-0.10839857803303707em">L<tspan x="34" y="0" style="letter-spacing:-0.05859345554982709em">T</tspan><tspan x="76" y="0" style="letter-spacing:0.0000016123902516497775em">-10</tspan></text><text transform="translate(782 4896)" style="font-size:75.70767211914062px;fill:#fff;font-family:VerdanaPro, Verdana Pro;letter-spacing:-0.10839857803303707em">L<tspan x="34" y="0" style="letter-spacing:-0.05859345554982709em">T</tspan><tspan x="76" y="0" style="letter-spacing:-0.0000016123902516497775em">-9</tspan></text><text transform="translate(888 3584) rotate(90)" style="font-size:126.47079467773438px;fill:#fff;font-family:VerdanaPro, Verdana Pro;letter-spacing:-0.10839837411125683em">L<tspan x="57" y="0" style="letter-spacing:-0.05859183749799418em">T</tspan><tspan x="127" y="0" style="letter-spacing:-0.0000019304110931073467em">-8</tspan></text><text transform="translate(874 3093) rotate(90)" style="font-size:116.36288452148438px;fill:#fff;font-family:VerdanaPro, Verdana Pro"><tspan style="letter-spacing:-0.10839818420190617em">L</tspan><tspan x="52" y="0" style="letter-spacing:-0.05859355637678571em">T</tspan><tspan x="117" y="0">-7</tspan></text><text transform="translate(808 2576)" style="font-size:75.70767211914062px;fill:#fff;font-family:VerdanaPro, Verdana Pro"><tspan style="letter-spacing:-0.10839938422816289em">L</tspan><tspan x="34" y="0" style="letter-spacing:-0.058592649354701265em">T</tspan><tspan x="76" y="0">-6</tspan></text><text transform="translate(797 2030)" style="font-size:75.70767211914062px;fill:#fff;font-family:VerdanaPro, Verdana Pro"><tspan style="letter-spacing:-0.10839857803303707em">L</tspan><tspan x="34" y="0" style="letter-spacing:-0.05859345554982709em">T</tspan><tspan x="76" y="0">-5</tspan></text><text transform="translate(771 1588)" style="font-size:75.70767211914062px;fill:#fff;font-family:VerdanaPro, Verdana Pro"><tspan style="letter-spacing:-0.10839857803303707em">L</tspan><tspan x="34" y="0" style="letter-spacing:-0.05859345554982709em">T</tspan><tspan x="76" y="0">-4</tspan></text><text transform="translate(753 1134)" style="font-size:75.70767211914062px;fill:#fff;font-family:VerdanaPro, Verdana Pro"><tspan style="letter-spacing:-0.10839857803303707em">L</tspan><tspan x="34" y="0" style="letter-spacing:-0.05859345554982709em">T</tspan><tspan x="76" y="0">-3</tspan></text><text transform="translate(754 752)" style="font-size:75.70767211914062px;fill:#fff;font-family:VerdanaPro, Verdana Pro"><tspan style="letter-spacing:-0.10839857803303707em">L</tspan><tspan x="34" y="0" style="letter-spacing:-0.05859345554982709em">T</tspan><tspan x="76" y="0">-2</tspan></text><text transform="translate(699 335)" style="font-size:75.70767211914062px;fill:#fff;font-family:VerdanaPro, Verdana Pro;letter-spacing:-0.10839857803303707em">L<tspan x="34" y="0" style="letter-spacing:-0.05859345554982709em">T</tspan><tspan x="76" y="0" style="letter-spacing:8.061951258248888e-7em">-1</tspan></text></g></svg>