<?xml version="1.0" encoding="UTF-8"?>
<svg id="Capa_1" data-name="Capa 1" xmlns="http://www.w3.org/2000/svg" viewBox="0 0 32 32">
  <defs>
    <style>
      .cls-1 {
        fill: #fff;
      }
    </style>
  </defs>
  <path class="cls-1" d="M3.36,22.46h-1.35c0-.11,0-.21,0-.31,0-2.75,0-5.5,0-8.25,0-.24,.08-.34,.29-.44,4.65-2.22,9.29-4.44,13.93-6.66,.17-.08,.3-.08,.47,0,4.71,2.23,9.42,4.46,14.14,6.69,.14,.07,.24,.13,.24,.32,0,2.82,0,5.65,0,8.47,0,.05,0,.11-.01,.18h-1.54c0-.11,0-.22,0-.33,0-1.39,0-2.78,0-4.17,0-.19-.05-.28-.24-.33-1.33-.3-2.67-.6-4-.9-.03,0-.05,0-.11,0v5.72h-1.32c0-.12,0-.23,0-.33,0-1.81,0-3.62,0-5.43,0-.17,0-.28-.22-.33-2.11-.47-4.22-.95-6.32-1.43-.05-.01-.11-.01-.2-.02v7.55h-1.35v-7.28c-.71,.16-1.37,.31-2.04,.46-.83,.19-1.66,.39-2.49,.55-.22,.05-.26,.14-.26,.34,0,1.86,0,3.72,0,5.57v.35h-1.3v-5.9c-.95,.21-1.87,.42-2.82,.63v5.27h-1.56v-4.91c-.59,.13-1.15,.25-1.73,.38-.05-.22-.1-.42-.15-.61-.01,0-.03,0-.04,0v5.15ZM24.09,11.96c-2.35-1.11-4.66-2.2-6.98-3.3v4.74c2.24,.51,4.47,1.01,6.73,1.53v-2.91c.08-.02,.14-.04,.25-.06Zm-13.12,2.79c.08,0,.14,0,.19-.01,1.44-.33,2.88-.66,4.33-.97,.21-.05,.27-.12,.27-.33,0-1.52,0-3.04,0-4.56,0-.08,0-.16-.01-.24-.04,0-.06,0-.07,0-1.52,.73-3.04,1.45-4.56,2.18-.07,.03-.13,.17-.13,.26,0,.82,0,1.63,0,2.45,0,.4,0,.8,0,1.22Zm14.19-2.28c0,.91,0,1.76,0,2.61,0,.06,.1,.16,.18,.18,.35,.1,.71,.17,1.06,.25,1.02,.23,2.04,.46,3.09,.7,0-.55,0-1.07,0-1.6,0-.06-.1-.15-.17-.18-.39-.2-.79-.38-1.19-.57-.97-.46-1.94-.92-2.97-1.4ZM6.84,15.71c.96-.22,1.88-.43,2.78-.63v-3.56c-.92,.44-1.81,.86-2.69,1.28-.05,.02-.09,.1-.09,.15,0,.91,0,1.82,0,2.76Zm-1.57-2.11c-.64,.31-1.23,.58-1.81,.87-.05,.03-.1,.11-.1,.17,0,.61,0,1.22,0,1.85,.61-.13,1.19-.26,1.77-.4,.06-.01,.14-.12,.15-.19,.01-.75,0-1.5,0-2.31Z"/>
</svg>