<?xml version="1.0" encoding="UTF-8"?>
<svg id="Capa_1" data-name="Capa 1" xmlns="http://www.w3.org/2000/svg" viewBox="0 0 32 32">
  <defs>
    <style>
      .cls-1 {
        fill: #785e60;
      }
    </style>
  </defs>
  <path class="cls-1" d="M29.56,26.89c-.43,.01-.86,0-1.31,0v-.54c0-4,0-7.99,0-11.99,0-.36-.12-.61-.39-.85-1.26-1.09-2.51-2.2-3.77-3.31-2.57-2.26-5.14-4.53-7.71-6.79-.38-.34-.52-.34-.91,0-1.42,1.25-2.84,2.49-4.26,3.74-2.37,2.08-4.72,4.18-7.1,6.24-.36,.32-.51,.64-.51,1.12,.02,3.96,0,7.91,0,11.87v.5c-.44,0-.82-.03-1.19,.01-.24,.03-.46,.15-.69,.24v.41c.26,.08,.52,.23,.78,.23,8.95,.01,17.89,.01,26.84,.01,.07,0,.14,0,.2,0,.31,0,.56-.12,.56-.46,0-.33-.23-.45-.56-.44Zm-4.11-.54v.51h-9.07s0-.03,0-.04c-.19,.03-.38,.06-.57,.09-.26,.02-.51,0-.75-.05H6.4v-.46c0-3.7,0-7.4,.01-11.1,0-.18,.11-.42,.25-.55,2.66-2.36,5.34-4.71,8.01-7.06,.41-.36,.81-.72,1.25-1.1,.42,.37,.84,.74,1.25,1.1,2.66,2.34,5.32,4.69,7.99,7.03,.22,.19,.29,.38,.29,.66,0,3.66,0,7.32,0,10.97Zm1.9,.32c0,.05,0,.11-.02,.19h-.99v-.53c0-3.74,0-7.48,0-11.22,0-.4-.12-.68-.43-.95-3.16-2.76-6.31-5.54-9.46-8.32-.46-.4-.59-.41-1.04-.01-3.16,2.78-6.32,5.57-9.49,8.34-.31,.27-.41,.56-.41,.95,0,3.73,0,7.45,0,11.18v.56h-1.01v-.38c0-3.97,0-7.94,0-11.91,0-.34,.2-.48,.4-.65,2.86-2.51,5.71-5.02,8.57-7.53,.81-.72,1.63-1.43,2.46-2.17,2.68,2.36,5.32,4.68,7.96,7,1.07,.94,2.15,1.88,3.21,2.83,.12,.11,.24,.31,.24,.47,.01,4.05,.01,8.1,0,12.15Z"/>
  <g>
    <path class="cls-1" d="M15.44,18.18c.52,0,.88,.07,1.21,.29,.24,.16,.42,.37,.59,.6,.27,.39,.53,.79,.83,1.17,.19,.24,.43,.46,.67,.66,.72,.62,1.01,1.39,.8,2.32-.22,.94-.83,1.51-1.76,1.74-.4,.1-.8,.06-1.19-.06-.68-.22-1.35-.21-2.03,0-1.34,.43-2.78-.46-2.97-1.85-.12-.84,.14-1.56,.79-2.1,.48-.4,.87-.86,1.21-1.38,.15-.23,.3-.45,.47-.67,.39-.51,.91-.73,1.4-.72Z"/>
    <path class="cls-1" d="M15.92,15.52c0-.55,.04-1.1,.2-1.63,.05-.18,.13-.37,.22-.54,.28-.5,.71-.65,1.24-.44,.91,.37,1.48,1.05,1.72,1.99,.26,1.03-.04,1.94-.73,2.73-.32,.37-.74,.55-1.25,.47-.48-.08-.81-.37-1.05-.77-.21-.34-.29-.73-.31-1.12-.02-.23-.02-.46-.03-.68Z"/>
    <path class="cls-1" d="M15.24,15.53c-.03,.44-.03,.88-.15,1.3-.14,.48-.4,.88-.85,1.13-.52,.28-1.1,.2-1.55-.22-.47-.43-.73-.98-.86-1.59-.27-1.29,.37-2.59,1.55-3.16,.21-.1,.44-.17,.68-.16,.29,.02,.5,.17,.66,.39,.24,.33,.34,.71,.4,1.1,.06,.4,.08,.8,.12,1.2Z"/>
    <path class="cls-1" d="M9.06,18.77c.02-.78,.15-1.41,.4-2.01,.07-.16,.17-.31,.28-.45,.21-.24,.48-.28,.77-.15,.25,.11,.44,.29,.6,.49,.68,.86,1.07,1.83,1.14,2.92,.01,.2,0,.4-.05,.6-.12,.58-.51,.87-1.11,.84-.95-.04-1.72-.67-1.94-1.6-.06-.25-.08-.51-.1-.64Z"/>
    <path class="cls-1" d="M22.08,18.64c0,.54-.1,1.06-.42,1.5-.47,.64-1.11,.92-1.9,.85-.44-.04-.74-.37-.84-.87-.09-.49-.02-.97,.1-1.45,.2-.75,.51-1.44,1.01-2.03,.15-.18,.32-.34,.53-.46,.35-.19,.66-.13,.89,.18,.13,.18,.23,.39,.31,.59,.21,.55,.31,1.18,.31,1.68Z"/>
  </g>
</svg>