<?xml version="1.0" encoding="UTF-8"?>
<svg id="Capa_1" data-name="Capa 1" xmlns="http://www.w3.org/2000/svg" viewBox="0 0 32 32">
  <defs>
    <style>
      .cls-1 {
        fill: #fff;
      }
    </style>
  </defs>
  <path class="cls-1" d="M1.34,5.84c.13,0,.27,.01,.4,.01,9.5,0,19,0,28.49,0,.13,0,.26,0,.41,0V26.99H9.55v-.87h6.01v-.32c0-1.54,0-3.07,0-4.61,0-.24-.05-.33-.32-.37-1.83-.24-3.4-1.91-3.66-3.75-.33-2.27,1.17-4.54,3.54-5.02,.07-.02,.16,0,.22-.04,.08-.05,.2-.13,.2-.2,0-1.66,0-3.32,0-4.98,0-.02-.01-.03-.03-.07H2.24v3.24c2.33-.16,4.32,.54,5.83,2.36,.98,1.18,1.47,2.56,1.45,4.09-.02,1.92-.76,3.54-2.21,4.81-1.45,1.28-3.17,1.71-5.08,1.58v3.25h6.13v.91c-.12,0-.24,0-.35,0-2.11,0-4.22,0-6.33,0-.11,0-.23,0-.34,.01,0-7.06,0-14.13,0-21.19ZM29.78,22.86c-1.89,.12-3.6-.3-5.04-1.55-1.44-1.25-2.19-2.84-2.24-4.74-.04-1.54,.43-2.94,1.4-4.14,1.51-1.87,3.52-2.58,5.88-2.43v-3.24h-13.3s-.02,.07-.02,.1c0,1.64,0,3.28,0,4.93,0,.16,.06,.23,.21,.23,.08,0,.15,.02,.23,.03,2.35,.48,3.87,2.74,3.54,5.03-.26,1.84-1.87,3.53-3.69,3.75-.22,.03-.28,.1-.28,.31,0,1.58,0,3.15,0,4.73,0,.07,0,.15,.01,.23h13.31v-3.25ZM5.68,13.97v4.94H2.23v3.05c2.2,.21,4.25-.56,5.47-2.47,1.29-2.01,1.3-4.1,0-6.1-1.27-1.95-3.18-2.64-5.47-2.49v3.08h3.44Zm24.1-3.08c-2.45-.15-4.44,.65-5.67,2.82-1.12,1.98-1.02,4,.27,5.88,1.29,1.88,3.17,2.54,5.39,2.38v-3.09h-3.44v-4.91h3.45v-3.08Zm-14.24,9.08v-7.08c-1.81,.26-3.12,1.77-3.11,3.55,.01,1.79,1.31,3.27,3.11,3.52Zm.93-7.08v7.08c1.77-.22,3.09-1.72,3.11-3.52,.02-1.78-1.28-3.28-3.11-3.56Zm-11.66,1.97H2.24v3.14h2.57v-3.14Zm24.97,0h-2.58v3.13h2.58v-3.13Z"/>
</svg>