<?xml version="1.0" encoding="UTF-8"?>
<svg id="Capa_1" data-name="Capa 1" xmlns="http://www.w3.org/2000/svg" viewBox="0 0 32 32">
  <defs>
    <style>
      .cls-1 {
        fill: #fff;
      }
    </style>
  </defs>
  <path class="cls-1" d="M2.16,13.18c.2,.05,.41-.04,.51-.21,.46-.78,1.64-1.21,3.33-1.21s3.18,.63,3.45,1.49c.06,.19,.24,.32,.44,.32s.38-.13,.44-.32c.26-.83,1.48-1.4,3.08-1.48,0,.04-.02,.07-.02,.11v6.9c0,.25,.21,.46,.46,.46s.46-.21,.46-.46v-6.9s0-.07-.01-.11c1.61,.1,2.89,.69,3.14,1.47,.06,.19,.24,.32,.44,.32s.38-.13,.44-.32c.29-.92,1.54-1.49,3.25-1.49s3.08,.55,3.42,1.4c.08,.2,.28,.32,.5,.28,.21-.03,.37-.2,.39-.42,.01-.14,.02-.28,.02-.42,0-4.19-5.15-7.61-11.58-7.77v-1.23c0-.25-.21-.46-.46-.46s-.46,.21-.46,.46v1.23c-6.42,.16-11.58,3.58-11.58,7.77,0,.05,0,.09,0,.14,0,.21,.15,.38,.35,.43Zm11.62-2.34c-1.5,0-2.73,.36-3.52,.99,.17-3.27,1.71-5.93,3.51-5.93s3.3,2.59,3.5,5.81c-.92-.6-2.25-.87-3.5-.87Zm11.08,.82c-.78-.53-1.92-.82-3.3-.82-1.45,0-2.62,.36-3.36,.99-.12-2.61-1.01-4.81-2.3-5.97,4.66,.54,8.3,2.88,8.95,5.79ZM11.61,5.9c-1.26,1.15-2.13,3.29-2.27,5.83-.88-.61-2.16-.89-3.35-.89-1.31,0-2.37,.23-3.13,.69,.72-2.82,4.24-5.07,8.74-5.64Z"/>
  <path class="cls-1" d="M3.67,16.59c-.39,.61-.51,1.34-.35,2.04,.3,1.28,1.49,2.16,2.81,2.16,.2,0,.41-.02,.62-.07,.77-.16,1.42-.61,1.84-1.26,.39-.61,.52-1.34,.35-2.04-.35-1.48-1.89-2.42-3.43-2.09h0c-.77,.16-1.42,.61-1.84,1.26Zm.78,.49c.28-.44,.72-.74,1.25-.85h0c.15-.03,.29-.05,.43-.05,.9,0,1.71,.59,1.91,1.45,.11,.46,.03,.94-.23,1.34-.28,.44-.72,.74-1.25,.85-1.06,.22-2.11-.4-2.34-1.4-.11-.46-.03-.94,.23-1.34Z"/>
  <path class="cls-1" d="M26.34,28.17l-7.6-2.55s-.07-.02-.1-.02c-.21-.02-.42,0-.63,.03l-1.91-.58,3.12-1.69,3.76,2.71s.1,.06,.16,.07c1.31,.32,2.1-.27,2.39-.93,.38-.86,.11-2.18-1.16-3.06l-4.29-2.96s-.07-.04-.11-.06c-.42-.14-.87-.16-1.31-.05-.06,.01-.11,.04-.15,.07l-4.02,2.17-3.25-1.97s0,0,0,0c-1.01-.61-2.35-.32-3,.64-.31,.47-.42,1.03-.3,1.57,.11,.48,.38,.9,.77,1.2l-5.94-1.81c-.22-.07-.46,.04-.55,.25-.09,.21-.02,.46,.18,.58l2.05,1.23c-.08,.04-.15,.1-.2,.18l-3.14,5.16c-.05,.07-.07,.16-.07,.24,0,.16,.08,.31,.22,.39,.22,.13,.5,.06,.63-.15l3.14-5.16c.05-.07,.07-.16,.07-.24,0,0,0-.02,0-.02l8.55,5.14c.14,.08,.3,.09,.44,.02l3.95-1.99,8.01,2.45s.09,.02,.13,.02c.19,0,.38-.12,.44-.32,.08-.24-.05-.5-.29-.58Zm-17.34-7.65c.37-.56,1.16-.73,1.76-.37l3.48,2.1c.14,.08,.31,.09,.46,.01l4.26-2.3c.22-.05,.44-.04,.66,.03l4.23,2.92c.85,.59,1.07,1.43,.85,1.93-.18,.41-.64,.56-1.25,.43l-3.92-2.83c-.14-.1-.33-.12-.49-.03l-4.17,2.26-2.61-.8-2.86-1.73c-.29-.17-.48-.44-.55-.75-.07-.3,0-.61,.16-.86Zm4.91,7.13l-7.83-4.71,5.79,1.77,1.16,.7c.59,.36,1.3,.45,1.9,.25,0,0,.02,0,.03,0l1.82,.56-2.86,1.44Z"/>
</svg>