<?xml version="1.0" encoding="UTF-8"?>
<svg id="Capa_1" data-name="Capa 1" xmlns="http://www.w3.org/2000/svg" viewBox="0 0 32 32">
  <defs>
    <style>
      .cls-1 {
        fill: #785e60;
      }
    </style>
  </defs>
  <path class="cls-1" d="M2.61,28.25H30v-.85H2.61v.85ZM9.25,7.95s-.02-.03-.02-.05c-.05-1.35-1.1-2.19-2.2-2.2-1.13,0-2.18,.86-2.24,2.16,0,.07-.08,.16-.14,.19-.51,.28-.77,.71-.73,1.29,.04,.55,.35,.95,.87,1.14,.54,.2,1.01,.06,1.42-.33,.07-.06,.2-.1,.29-.08,.63,.14,1.2,.03,1.74-.32,.05-.03,.1-.06,.16-.09,.4,.77,1.04,1.07,1.72,.82,.61-.22,.99-.88,.86-1.49-.17-.77-.72-1.1-1.72-1.04Z"/>
  <path class="cls-1" d="M8.74,18.98c.41-.57,.82-1.13,1.21-1.71,.09-.13,.15-.31,.15-.47,.02-.44,0-.88,0-1.35h-1.29c-.09-.7,.52-1.7,1.62-1.77,1.02-.07,1.9,.75,1.88,1.76h-1.3v1.31h5.11c-.21-.62-.38-1.25-.62-1.85-.21-.53,.1-.81,.57-.79,.74,.04,1.47,0,2.21,.01,.92,0,1.62,.75,1.56,1.66-.06,.87-.84,1.51-1.75,1.41v-.85c.1,0,.19,0,.28-.02,.34-.04,.59-.33,.59-.66,0-.34-.27-.65-.62-.66-.61-.02-1.21,0-1.87,0,.24,.7,.41,1.4,.71,2.04,.31,.64,.75,1.22,1.14,1.82-.25,.16-.48,.31-.74,.48,.27,.43,.54,.85,.8,1.27,.19,.3,.39,.6,.57,.91,.05,.08,.07,.21,.04,.3-.13,.51,.13,1,.61,1.13,.49,.13,1.01-.18,1.11-.66,.11-.51-.2-1-.72-1.09-.17-.03-.25-.1-.33-.23-.44-.69-.88-1.38-1.32-2.07,1.23-.7,3.24-.43,4.35,1.08,1.1,1.49,.84,3.64-.57,4.8-1.47,1.21-3.6,1.08-4.85-.27-1.3-1.4-1.38-3.68,.3-5.17-.34-.54-.69-1.08-1.05-1.65-.1,.14-.18,.25-.26,.37-.77,1.16-1.54,2.32-2.32,3.47-.1,.14-.09,.24-.02,.39,.34,.66,.08,1.45-.59,1.78-.66,.33-1.46,.05-1.77-.62-.08-.18-.17-.25-.36-.24-.24,0-.48-.03-.72-.05h0c.02-.29,.04-.59,.06-.89h0c.27,.03,.53,.05,.8,.06,.29,.01,.54-.37,.43-.63-.29-.7-.57-1.39-.86-2.09-.15-.37-.31-.73-.48-1.13-.35,.48-.68,.93-1,1.36-.25-.18-.49-.34-.72-.51h0Zm6.73-1.31h-4.22s0,.07,.01,.09c.46,1.1,.91,2.2,1.37,3.3,.08,.2,.42,.22,.55,.04,.25-.37,.5-.75,.75-1.12,.5-.76,1.01-1.51,1.54-2.3Z"/>
  <path class="cls-1" d="M25.6,18.47c-.84-.07-1.5-.48-2.04-1.09-.89-1-1.18-2.19-1.02-3.51,.23-1.9,.71-3.72,1.57-5.42,.27-.52,.63-1.02,1.04-1.45,.57-.59,1.17-.55,1.78-.01,.55,.49,.9,1.12,1.19,1.78,.77,1.71,1.25,3.51,1.44,5.38,.16,1.68-.68,3.34-2.07,4.03-.31,.15-.68,.2-1.02,.3h0c0-2.34,0-4.69,0-7.03,0-.1,.08-.23,.17-.3,.3-.22,.62-.43,.95-.65-.16-.25-.32-.48-.48-.73-.43,.29-.83,.56-1.24,.82-.21,.13-.29,.3-.29,.55,0,.9,0,1.8,0,2.71,0,.07-.01,.15-.02,.25-.36-.27-.7-.52-1.04-.77-.18,.24-.35,.47-.53,.7,.48,.36,.95,.7,1.41,1.06,.09,.07,.17,.22,.18,.33,.01,1.02,0,2.04,0,3.07h0Z"/>
  <path class="cls-1" d="M10.5,22.79c-.19,.7-.49,1.35-1.04,1.85-1.04,.95-2.25,1.24-3.58,.79-1.32-.45-2.13-1.41-2.35-2.8-.34-2.2,1.35-4.13,3.58-4.08,.58,.01,1.12,.18,1.63,.44,0,0,0,0,0,0-.5,.68-.99,1.37-1.5,2.04-.06,.08-.18,.15-.28,.17-.42,.06-.74,.34-.81,.75-.06,.34,.13,.74,.44,.91,.36,.2,.73,.15,1.06-.14,.07-.06,.19-.11,.28-.11,.86,.06,1.72,.14,2.58,.21h0Z"/>
  <path class="cls-1" d="M2.61,28.25v-.85H30v.85H2.61Z"/>
  <path class="cls-1" d="M9.25,7.95c1.01-.07,1.55,.26,1.72,1.04,.13,.62-.24,1.27-.86,1.49-.68,.25-1.32-.05-1.72-.82-.05,.03-.11,.05-.16,.09-.53,.35-1.11,.46-1.74,.32-.09-.02-.23,.02-.29,.08-.41,.39-.88,.53-1.42,.33-.52-.19-.83-.59-.87-1.14-.04-.58,.22-1.01,.73-1.29,.06-.04,.14-.13,.14-.19,.05-1.3,1.11-2.17,2.24-2.16,1.09,0,2.15,.85,2.2,2.2,0,.02,.01,.03,.02,.05Z"/>
  <path class="cls-1" d="M26.47,18.47v3.15h3.53v.88h-6.15v-.86h1.75c0-1.08,0-2.12,0-3.17,0,0,0,.01,0,.01,.3,0,.6,0,.89,0h0Z"/>
  <path class="cls-1" d="M10.56,21.9c-.89-.07-1.77-.14-2.72-.21,.54-.75,1.05-1.45,1.59-2.19,.71,.66,1.04,1.48,1.13,2.41,0,0,0,0,0,0Z"/>
</svg>