<svg id="Capa_1" data-name="Capa 1" xmlns="http://www.w3.org/2000/svg" viewBox="0 0 120 120"><path d="M103.32,52.81v2.31a1.45,1.45,0,0,1,0,.3c0-.18,0-.36,0-.55A8.36,8.36,0,0,1,103.32,52.81Z" fill="#fff"/><path d="M93.32,57.84A25.67,25.67,0,1,1,67.65,83.56,25.76,25.76,0,0,1,93.32,57.84Zm18.07,25.68a18.08,18.08,0,1,0-18,18.07A18.19,18.19,0,0,0,111.39,83.52Z" fill="#fff"/><path d="M107.31,77.51a8.56,8.56,0,0,1-1.08,1.84q-7,7.08-14.07,14.09a2.51,2.51,0,0,1-3.91,0Q85,90.25,81.79,87a2.54,2.54,0,0,1,0-3.84c.32-.34.66-.67,1-1a2.55,2.55,0,0,1,3.93,0c.84.81,1.69,1.62,2.48,2.49s1.37.75,2.13,0c3.26-3.31,6.57-6.57,9.84-9.87.92-.94,1.92-1.49,3.24-.94A6.1,6.1,0,0,1,107.31,77.51Z" fill="#fff"/><path d="M73.19,105.64l-.59.25h-.1Z" fill="#fff"/><path d="M103.38,52.51l-.06.3V52.5Z" fill="#fff"/><path d="M54.84,36.19c-2.52,0-5.05,0-7.58,0a3,3,0,0,0-3,2.86c-.07,3.35,0,6.7,0,10.11H57.88c0-3.4.06-6.75,0-10.1A3,3,0,0,0,54.84,36.19Z" fill="#fff"/><path d="M51.43,55.79a4.07,4.07,0,0,0-4.16,2.55A4,4,0,0,0,48.55,63,1.06,1.06,0,0,1,49,64c0,1.12,0,2.24,0,3.36s0,2.37,0,3.55a1,1,0,0,0,1.11,1.12c.51,0,1,0,1.54,0,1.1,0,1.4-.28,1.4-1.37,0-2.23,0-4.47,0-6.7a1,1,0,0,1,.46-.94A3.89,3.89,0,0,0,55,59,4,4,0,0,0,51.43,55.79Z" fill="#fff"/><path d="M103.3,56.86a7.94,7.94,0,0,1,0-1.29s0-.1,0-.15,0-.36,0-.55a8.36,8.36,0,0,1,.09-2.06V52.5q0-13.09,0-26.18a5,5,0,0,0-2-4.18,20.89,20.89,0,0,0-4.53-2.61C84.27,14.61,71.72,9.78,59.18,4.93A17.78,17.78,0,0,0,45.92,5Q27.55,12.09,9.18,19.23a26.69,26.69,0,0,0-4.09,2A6.28,6.28,0,0,0,1.9,27.08c.05,7.61,0,15.22,0,22.83,0,5.78-.17,11.57.21,17.32,1,14.83,7.86,26.37,20.65,33.94,15.39,9.11,31.81,10.13,48.78,5,.31-.1.62-.2.94-.32l.69-.26.3-.1.31-.1.74-.13a9.12,9.12,0,0,1,.79-.47c-.59-.52-1.16-1.06-1.71-1.63a27.73,27.73,0,0,1-7.38-24.48c-.13,0-.25-.09-.38-.13h0q-14.78,0-29.54,0a4.84,4.84,0,0,1-4.83-4.78q0-9.9,0-19.8a4.88,4.88,0,0,1,4.74-4.81c.45,0,.89,0,1.44,0v-.81c0-3,0-6,0-8.93a9.57,9.57,0,0,1,8.9-9.76,60,60,0,0,1,9,0,9.57,9.57,0,0,1,8.92,9.81c0,3,0,5.91,0,8.86v.82h1.23a4.93,4.93,0,0,1,5,5q0,6.51,0,13l.28.12.1.07a28,28,0,0,1,31.63-10.29l.7.25C103.33,57.22,103.31,57,103.3,56.86Z" fill="#fff"/></svg>