<svg id="Capa_1" data-name="Capa 1" xmlns="http://www.w3.org/2000/svg" viewBox="0 0 32 32"><path d="M14.54,31.14l-.12-.07A25.75,25.75,0,0,1,2.74,15a25.48,25.48,0,0,1-.55-9.09l0-.26h.26c8.18,0,11.88-4.37,11.91-4.41L14.6,1l.24.21a17.89,17.89,0,0,0,11.82,4.4h.27l0,.26A19.17,19.17,0,0,1,26.71,13l-.58-.15a19,19,0,0,0,.29-6.72h0A18.72,18.72,0,0,1,14.66,1.81c-.89.94-4.6,4.32-11.91,4.4a26,26,0,0,0,.58,8.64A25.15,25.15,0,0,0,14.62,30.48a11.38,11.38,0,0,0,2.55-1.79l.39.45a9.85,9.85,0,0,1-2.89,2Z" fill="#785e60"/><path d="M23.38,13.41a8.29,8.29,0,0,0-6.56,3.22l-.1-1.13a3.89,3.89,0,1,0-4.25,0L11.8,20.8h3.31a7.3,7.3,0,0,0,0,.94,8.33,8.33,0,1,0,8.32-8.33ZM12.48,20.2l.64-5L12.89,15a3.3,3.3,0,1,1,3.37,0l-.16.09.18,2.23a8.28,8.28,0,0,0-1.08,2.8Zm10.9,9.27a7.73,7.73,0,0,1-7.72-7.73c0-.32,0-.63.05-.94s.06-.4.1-.6a7.45,7.45,0,0,1,.56-1.69,6.83,6.83,0,0,1,.52-1,7.73,7.73,0,1,1,6.49,11.92Z" fill="#785e60"/><path d="M22.77,26.69V25.51A3.4,3.4,0,0,1,21,25l.28-.79a3.12,3.12,0,0,0,1.68.51c.83,0,1.39-.48,1.39-1.15s-.46-1-1.32-1.39c-1.19-.47-1.93-1-1.93-2a1.91,1.91,0,0,1,1.77-1.88V17.1h.72v1.13a3.08,3.08,0,0,1,1.52.41l-.29.77a2.85,2.85,0,0,0-1.47-.4c-.9,0-1.24.54-1.24,1s.43.91,1.45,1.33c1.2.49,1.81,1.1,1.81,2.14a2,2,0,0,1-1.85,2v1.21Z" fill="#785e60"/></svg>