<svg id="Capa_1" data-name="Capa 1" xmlns="http://www.w3.org/2000/svg" viewBox="0 0 32 32"><polygon points="3.92 3.61 18.84 3.61 24 8.78 24 15.17 24.57 15.17 24.57 8.54 19.07 3.04 3.35 3.04 3.35 28.03 20.42 28.03 20.42 27.46 3.92 27.46 3.92 3.61" fill="#785e60"/><rect x="5.94" y="7.44" width="11.79" height="0.57" fill="#785e60"/><rect x="5.93" y="12.97" width="14.29" height="0.57" fill="#785e60"/><rect x="5.87" y="17.91" width="14.29" height="0.57" fill="#785e60"/><rect x="5.81" y="22.85" width="14.29" height="0.57" fill="#785e60"/><path d="M30.31,16H21.25v.57h1.17c-.53,3.4,1,4.33,1,4.36a1.22,1.22,0,0,1,.47.77A1.84,1.84,0,0,1,23.26,23,5.62,5.62,0,0,0,22,27.46H21.2V28h9.06v-.57h-1A5.6,5.6,0,0,0,28,23a1.82,1.82,0,0,1-.67-1.38,1.19,1.19,0,0,1,.47-.76h0c.06,0,1.56-1,1-4.37h1.45Zm-2.78,4.46a1.67,1.67,0,0,0-.73,1.17,2.33,2.33,0,0,0,.82,1.85,5.14,5.14,0,0,1,1.05,4H22.61a5.12,5.12,0,0,1,1.06-4,2.32,2.32,0,0,0,.81-1.85,1.73,1.73,0,0,0-.73-1.18s-1.25-.83-.75-3.88h5.28C28.79,19.58,27.54,20.4,27.53,20.42Z" fill="#785e60"/><path d="M25.58,19.52c1.69-1,1.3-1.76,1.3-1.76h-2.6C24.07,18.71,25.58,19.52,25.58,19.52Z" fill="#785e60"/><path d="M23,27.2h5.33c.38-1.84-2.66-3.6-2.66-3.6C22.21,25.68,23,27.2,23,27.2Z" fill="#785e60"/></svg>