<svg id="Capa_1" data-name="Capa 1" xmlns="http://www.w3.org/2000/svg" viewBox="0 0 120 120"><path d="M1.65,29a8.18,8.18,0,0,1,1.49-1.1q25.37-11,50.73-22A12.85,12.85,0,0,1,65,6.1L86.86,16.46c.36.17.73.31,1.27.54V10.7c0-.6,0-1.2,0-1.8,0-1,.49-1.43,1.46-1.43H105c1.16,0,1.48.38,1.48,1.61,0,4.8,0,9.59,0,14.39a1.24,1.24,0,0,0,.93,1.39c2.61,1,5.18,2.15,7.8,3.16a2.2,2.2,0,0,1,1.61,2.36c0,4.83,0,9.66,0,14.49,0,2.11-.9,2.67-2.86,1.82Q87.07,35.12,60.24,23.52a2.4,2.4,0,0,0-2.11,0Q31.36,35.14,4.57,46.68c-1.55.66-1.95.59-2.92-.55Z" fill="#fff"/><path d="M60.37,78.62a66.46,66.46,0,0,1,6.46,3.87A72.14,72.14,0,0,1,79.74,95.88c.51.65,1,1.32,1.49,2a2.25,2.25,0,0,0,3.12.88c1.14-.46,1.57-1.29,1.34-2.75A37.2,37.2,0,0,0,69.36,70.07a52.22,52.22,0,0,0-23-8.43c-3.15-.41-6.33-.58-9.51-.79-2.56-.16-3.37.6-3.82,3.14-2.72,15.39,5.07,30.47,18.06,38.19a50.8,50.8,0,0,0,20.66,6.69c1.67.18,3.36.27,5,.47a1.23,1.23,0,0,1,.87.61c.95,3,1.85,5.91,2.8,9H79.15q-32.93,0-65.87,0c-3,0-5.57-.86-7.34-3.36-2.69-3.83-.76-8.94,3.93-10.39a16.46,16.46,0,0,1,3.65-.49c1-.08,2.08,0,3.26,0v-1.55q0-26.7,0-53.4A1.67,1.67,0,0,1,17.93,48Q38,39.26,58.07,30.5a2.51,2.51,0,0,1,2.22,0q20.1,8.77,40.23,17.5a1.59,1.59,0,0,1,1.13,1.74q0,26.69,0,53.39v1.69c1.76,0,3.44-.11,5.11,0,3.84.3,7.46,3.57,6.88,8-.39,3.07-3.39,5.76-7,6.12A15.92,15.92,0,0,1,105,119c-6,0-12.06,0-18.09,0a1.44,1.44,0,0,1-1.65-1.15c-3.71-10-8.19-19.69-14.6-28.34a48.51,48.51,0,0,0-9-9.25c-.52-.41-1-.84-1.53-1.26Z" fill="#fff"/></svg>