<svg id="Capa_1" data-name="Capa 1" xmlns="http://www.w3.org/2000/svg" viewBox="0 0 120 120"><path d="M116.1,75.5c-.44,0-.73,0-1,0-8.2,0-16.4,0-24.6,0-.84,0-1.17-.18-1.23-1.12-.49-7.4-2.72-15.74-8-21.19-5.71-5.87-14.89-5.45-21.23-.88C52.68,57.65,49.76,66.7,47,74.87c-.09.28-.47.49-.75.66s-.39,0-.58,0H1.85c.74-1.23,1.37-2.28,2-3.33Q11,60.41,18.23,48.62C20.57,44.77,23.06,41,25.12,37,27.63,32.07,29.4,23,37,25.37c3.62,1.11,6.47,5,10.2,4.44a7.75,7.75,0,0,0,4.25-2.72c2.82-3.05,4.82-6.71,7.33-10,2.74-3.56,5.67-7,8.43-10.54,2.05-2.65,6.09-7.43,9.2-3.28,1,1.32,1.34,3,2.14,4.38,2.06,3.66,3.89,7.45,5.93,11.12C88,25,91,31.67,94.91,37.55l10.59,19,5.43,9.72C111.48,67.22,115.34,75.54,116.1,75.5Z" fill="#fff"/><path d="M103.94,105.19a18,18,0,0,1-13.18-5.3,13.89,13.89,0,0,0-19.3.13A17.52,17.52,0,0,1,60,105.2a16.53,16.53,0,0,1-12.76-4.6,14.9,14.9,0,0,0-8-4.29,13.53,13.53,0,0,0-12,3.56,17.66,17.66,0,0,1-8.93,5A17.08,17.08,0,0,1,2.61,100.5c-1.15-1.07-1.1-2.41.06-3A1.83,1.83,0,0,1,4.89,98,13.65,13.65,0,0,0,10,101.05c5.13,1.61,9.85.81,13.89-2.78,2.73-2.44,5.6-4.49,9.26-5.18,5.7-1.08,10.85.09,15.2,4,2.39,2.16,4.9,4,8.17,4.5a13.75,13.75,0,0,0,12.33-3.77,17.08,17.08,0,0,1,8.83-4.76A16.82,16.82,0,0,1,93,97.29c3.1,2.89,6.57,4.65,10.88,4.51a13.63,13.63,0,0,0,8.61-3.28,14.3,14.3,0,0,1,1.13-.93,1.61,1.61,0,0,1,2.14.22,1.56,1.56,0,0,1,.11,2.14,11.75,11.75,0,0,1-1.7,1.61A16.28,16.28,0,0,1,103.94,105.19Z" fill="#fff"/><path d="M104,92.46c-5.17-.09-9.13-1.53-12.41-4.65a14.89,14.89,0,0,0-8-4.25,13.66,13.66,0,0,0-11.73,3.32,19.71,19.71,0,0,1-6.64,4.42c-6.74,2.32-12.87,1.27-18.18-3.59a15.09,15.09,0,0,0-7.55-4.09,13.89,13.89,0,0,0-12.69,3.82A16.42,16.42,0,0,1,20,91.58c-6.52,1.91-12.38.75-17.44-3.91-1-.91-1.09-1.88-.35-2.65a1.76,1.76,0,0,1,2.6.17,14,14,0,0,0,10,3.88,13.19,13.19,0,0,0,9-3.49c2.69-2.48,5.59-4.51,9.25-5.21,5.74-1.11,10.91.07,15.28,4,2.38,2.14,4.86,4,8.09,4.48a13.75,13.75,0,0,0,12.34-3.73,17.4,17.4,0,0,1,8.82-4.79,17,17,0,0,1,15.34,4.17c2.45,2.22,5.06,4,8.44,4.4a13.86,13.86,0,0,0,11-3.09c.33-.27.63-.57,1-.82a1.65,1.65,0,0,1,2.37.1,1.61,1.61,0,0,1-.15,2.36A16.31,16.31,0,0,1,107.4,92C106.07,92.27,104.7,92.37,104,92.46Z" fill="#fff"/><path d="M102,118a15.82,15.82,0,0,1-10.29-4.52,14.91,14.91,0,0,0-8.11-4.41,13.49,13.49,0,0,0-11.94,3.51,18.2,18.2,0,0,1-8.91,5c-5.89,1.18-11.17-.08-15.57-4.23a15.12,15.12,0,0,0-8-4.3,13.54,13.54,0,0,0-12,3.55,17.93,17.93,0,0,1-8.84,4.94,17.05,17.05,0,0,1-15.75-4.28,1.81,1.81,0,0,1-.37-2.67c.76-.78,1.66-.72,2.68.19a14,14,0,0,0,18.22.89A56.52,56.52,0,0,1,28,107.88,17.23,17.23,0,0,1,48.51,110a14.78,14.78,0,0,0,8,4.35C61,115,65,114.13,68.34,111a18.64,18.64,0,0,1,9.08-5.12,17,17,0,0,1,15.24,3.9c1.86,1.62,3.68,3.26,6.08,4a13.94,13.94,0,0,0,13.86-2.61c.27-.23.52-.48.81-.7a1.64,1.64,0,0,1,2.29.08,1.54,1.54,0,0,1,0,2.28,17.8,17.8,0,0,1-2.53,2.14C110.22,117,107,118,102,118Z" fill="#fff"/></svg>