<svg id="Capa_1" data-name="Capa 1" xmlns="http://www.w3.org/2000/svg" viewBox="0 0 32 32"><path d="M14.5,29A14.3,14.3,0,1,1,30.06,16.09L29.4,16A13.64,13.64,0,1,0,14.56,28.36Z" fill="#785e60"/><path d="M14.56,26.31A11.72,11.72,0,0,1,8.15,5.63a11.72,11.72,0,0,1,19.06,7.21l-.65.1a11.05,11.05,0,0,0-21.93.69,11,11,0,0,0,10,12Z" fill="#785e60"/><path d="M22.1,9.05l-.47-.46L17,13.23a1.94,1.94,0,0,0-1.28-.47,2,2,0,0,0-1.86,1.29L9.78,12.8l-.19.63,4.13,1.27v.05a2,2,0,1,0,4,0,2,2,0,0,0-.28-1Zm-6.39,7A1.34,1.34,0,1,1,17,14.75,1.33,1.33,0,0,1,15.71,16.08Z" fill="#785e60"/><path d="M20.74,29.61h-4.2V22.9H13.62l5-5,4.92,4.92h-2.8ZM17.19,29h2.89V22.16H22l-3.34-3.33-3.41,3.42h2Z" fill="#785e60"/><path d="M28.55,29.67h-4.2V18.76H21.44l5-5,4.92,4.92H28.55ZM25,29h2.88V18h1.88l-3.33-3.33L23,18.11h2Z" fill="#785e60"/></svg>