<svg id="Capa_1" data-name="Capa 1" xmlns="http://www.w3.org/2000/svg" viewBox="0 0 32 32"><path d="M16.74,3.45A9.44,9.44,0,0,0,9,7.33a10.36,10.36,0,0,0-1.64,5.61A7.69,7.69,0,0,0,8.47,17,14.35,14.35,0,0,0,9.63,18.6,10.9,10.9,0,0,1,11,20.49a8.5,8.5,0,0,1,.88,3.73v.16c0,2.57.33,4.28,1,5.39a4.09,4.09,0,0,0,3.85,1.8c1.89,0,3.13-.57,3.89-1.8s1-2.77,1-5.43v-.13a8.67,8.67,0,0,1,.89-3.72,11.09,11.09,0,0,1,1.34-1.9A18.65,18.65,0,0,0,25,17a7.69,7.69,0,0,0,1.09-4.08,10.38,10.38,0,0,0-1.64-5.61A9.55,9.55,0,0,0,16.74,3.45Zm0,27.45c-3.06,0-4.18-1.65-4.22-6.27H21c0,2.34-.3,3.82-.9,4.79h0C19.43,30.43,18.37,30.9,16.74,30.9Zm3.61-15.38a3.59,3.59,0,0,1-3,0l3-2.46L20,12.51l-2.9,2.37v-.65a3.79,3.79,0,0,1,1.14-2.63c1.37-1.21,3.58-1,4.21-.89C22.23,13.26,21.54,14.88,20.35,15.52Zm-5.14-.95a4,4,0,0,1,1.16,3.14L13.58,15l-.47.48,3,2.9a3.66,3.66,0,0,1-3.06.08c-1.19-.65-1.89-2.27-2.07-4.82C11.63,13.58,13.84,13.35,15.21,14.57ZM17.07,24V16.08a5.23,5.23,0,0,0,2,.43,3.39,3.39,0,0,0,1.63-.4c1.46-.78,2.27-2.67,2.44-5.62v-.25h-.17l0-.1-.25-.05c-.12,0-3.12-.6-4.94,1A4.71,4.71,0,0,0,16.39,15a3.74,3.74,0,0,0-.73-.89c-1.83-1.63-4.82-1.05-4.95-1l-.25,0,0,.09h-.17l0,.25c.16,2.95,1,4.84,2.43,5.63a3.44,3.44,0,0,0,1.63.39,5.31,5.31,0,0,0,2-.44V24H12.51a9.22,9.22,0,0,0-1-3.77,11.52,11.52,0,0,0-1.4-2A14.39,14.39,0,0,1,9,16.68,7.07,7.07,0,0,1,8,13,9.7,9.7,0,0,1,9.57,7.71a8.75,8.75,0,0,1,7.17-3.59A8.88,8.88,0,0,1,23.9,7.71,9.77,9.77,0,0,1,25.42,13a6.89,6.89,0,0,1-1,3.72h0a14.41,14.41,0,0,1-1.1,1.5,12.23,12.23,0,0,0-1.41,2A9.37,9.37,0,0,0,21,24Z" fill="#785e60"/><rect x="5.59" y="4.55" width="0.67" height="3.23" transform="translate(-2.63 6) rotate(-45.01)" fill="#785e60"/><rect x="26.37" y="5.99" width="3.11" height="0.67" transform="translate(3.71 21.6) rotate(-45.01)" fill="#785e60"/><rect x="16.4" y="0.79" width="0.67" height="2.28" fill="#785e60"/><path d="M23.16,7.91a6.33,6.33,0,0,0-3.3-2.5l-.19,0-.11.46.18,0a6,6,0,0,1,3,2.31l.11.15.42-.27Z" fill="#785e60"/></svg>