<svg id="Capa_1" data-name="Capa 1" xmlns="http://www.w3.org/2000/svg" viewBox="0 0 120 120"><path d="M112.8,77V95.58a24.44,24.44,0,0,1-11-2.2,27.86,27.86,0,0,0-22.91.05,26.71,26.71,0,0,1-21.68,0,28.39,28.39,0,0,0-23.22,0,27.38,27.38,0,0,1-21.6.07A54.69,54.69,0,0,0,5.05,91.3,26.46,26.46,0,0,0,.8,90.9V72.36a24.5,24.5,0,0,1,10.92,2.19,27.35,27.35,0,0,0,22.69,0A25.91,25.91,0,0,1,46,72.34c2,.08,4,.3,6.09.46V57.9q0-18.37,0-36.77A13.92,13.92,0,0,1,62.2,7.47c.73-.21,1.48-.37,2.22-.55h3.5a28.31,28.31,0,0,1,3.91,1.26c7.72,3.74,8.88,10.39,8.14,17.33H70.9c-.07-.1-.1-.13-.1-.16,0-1.49,0-3,0-4.48a4.63,4.63,0,0,0-3.12-4.33c-3.13-1.11-6.2,1.16-6.22,4.67,0,4.33,0,8.67,0,13a5.63,5.63,0,0,0,.08.66H84.77V33.65c0-4.3,0-8.6,0-12.91A14,14,0,0,1,95,7.42c.66-.18,1.33-.33,2-.5h3.51a3.25,3.25,0,0,0,.6.2,13.3,13.3,0,0,1,9.69,6.79,34.6,34.6,0,0,1,2,5.27v6.35h-9.38c0-1.67,0-3.23,0-4.79a4.53,4.53,0,0,0-3.11-4.21c-3.14-1.1-6.17,1.18-6.17,4.71q0,25.11,0,50.23c0,.35,0,.7.07,1l.21-.26c2.41.8,4.88,1.46,7.21,2.43A27.94,27.94,0,0,0,112.8,77Zm-51.34-.72a24,24,0,0,0,11.07.33c4.14-1,8.16-2.5,12.16-3.75V63H61.46Zm0-22.73H84.71V44.36H61.47Z" fill="#fff"/><path d="M112.8,119H.79V95.68a22.49,22.49,0,0,1,7.39.95c2.45.82,4.81,2,7.29,2.64A26.81,26.81,0,0,0,34,98.12a27.94,27.94,0,0,1,18.47-1.63c2.21.54,4.29,1.62,6.46,2.34a26.58,26.58,0,0,0,19.44-.54,28.94,28.94,0,0,1,15.13-2.46,23.65,23.65,0,0,1,6.14,1.42c4.25,1.74,8.54,3.13,13.19,3.14Z" fill="#fff"/></svg>