<svg id="Capa_1" data-name="Capa 1" xmlns="http://www.w3.org/2000/svg" viewBox="0 0 120 120"><path d="M58.29,5.71c.19.09.37.2.56.27a5.34,5.34,0,0,1,3.74,5.12c0,2.87,0,5.75,0,8.62a5.38,5.38,0,1,1-10.75,0c-.05-2.84,0-5.68,0-8.51A5.34,5.34,0,0,1,55.68,6a5.06,5.06,0,0,0,.46-.24Z" fill="#fff"/><path d="M2,59.86a4.83,4.83,0,0,0,.27-.56,5.34,5.34,0,0,1,5.13-3.74c2.88,0,5.75-.05,8.63,0a5.38,5.38,0,1,1,0,10.76c-2.88.05-5.75.05-8.63,0a5.33,5.33,0,0,1-5.13-3.73A5.94,5.94,0,0,0,2,62Z" fill="#fff"/><path d="M57.25,88.46a27.6,27.6,0,1,1,27.57-27.6A27.63,27.63,0,0,1,57.25,88.46Z" fill="#fff"/><path d="M22.12,101.67a5.92,5.92,0,0,1-4.93-3.32,4.81,4.81,0,0,1,.62-5.55c2.24-2.46,4.6-4.85,7.07-7.07a5.32,5.32,0,0,1,7.47,7.46,98.38,98.38,0,0,1-7.09,7.06A11.4,11.4,0,0,1,22.12,101.67Z" fill="#fff"/><path d="M16.66,25.65a5.15,5.15,0,0,1,3.06-4.8,4.84,4.84,0,0,1,5.64.67c2.4,2.2,4.73,4.5,6.92,6.92a5.32,5.32,0,0,1-7.48,7.49c-2.42-2.19-4.72-4.52-6.91-6.93a12.38,12.38,0,0,1-1.5-3.22Z" fill="#fff"/><path d="M97.76,25.7a5.39,5.39,0,0,1-1.71,3.94c-1.92,1.93-3.83,3.88-5.79,5.78a5.39,5.39,0,1,1-7.61-7.61c1.92-2,3.88-3.94,5.86-5.86a5.39,5.39,0,0,1,9.25,3.75Z" fill="#fff"/><path d="M97.77,96.07a5.17,5.17,0,0,1-3.06,4.8,4.79,4.79,0,0,1-5.55-.6,96.24,96.24,0,0,1-7.07-7.07,5.31,5.31,0,0,1,7.53-7.41,96.12,96.12,0,0,1,6.91,6.93A12.17,12.17,0,0,1,98,95.93Z" fill="#fff"/><path d="M102.67,66.24c-1.4,0-2.8,0-4.2,0a5.38,5.38,0,1,1,0-10.76q4.2-.06,8.4,0a5.38,5.38,0,1,1,0,10.76C105.47,66.27,104.07,66.24,102.67,66.24Z" fill="#fff"/><path d="M51.83,106.28c0-1.4,0-2.8,0-4.2a5.38,5.38,0,1,1,10.76,0c0,2.83,0,5.67,0,8.5a5.38,5.38,0,1,1-10.76,0C51.8,109.08,51.83,107.68,51.83,106.28Z" fill="#fff"/></svg>