<svg id="Capa_1" data-name="Capa 1" xmlns="http://www.w3.org/2000/svg" viewBox="0 0 120 120"><path d="M29.89,6.2c1.21.34,2.46.59,3.64,1a19.58,19.58,0,0,1,9.88,8.85A31.82,31.82,0,0,1,47,39.35a3.67,3.67,0,0,0,.77,3.34,32.17,32.17,0,0,1,1.56,36.72c-4,6.2-9.42,10.51-16.77,11.9C23.76,93,16.35,90.06,10.23,83.75a30.1,30.1,0,0,1-8.3-18.1c0-.32-.14-.63-.21-1V59.25a1.65,1.65,0,0,0,.17-.39,31.38,31.38,0,0,1,7-17.09,1.79,1.79,0,0,0,.29-1.35A33.16,33.16,0,0,1,9.39,24C11,18,14,12.74,19.28,9A19.12,19.12,0,0,1,26.39,6.2Z" fill="#fff"/><path d="M62.63,6.2c1,.26,2,.45,2.93.78A19.4,19.4,0,0,1,76.15,16.1,32.08,32.08,0,0,1,79.64,40a2.29,2.29,0,0,0,.5,2.16A32.15,32.15,0,0,1,80.26,82c-5.18,6.47-11.9,10-20.34,9.79a21.73,21.73,0,0,1-9.64-2.68,67,67,0,0,0,4.65-6.28q12.32-21.14-.52-42a3.15,3.15,0,0,1-.56-2.3A38.24,38.24,0,0,0,49,12.84a.87.87,0,0,1,.16-1.29,17.35,17.35,0,0,1,9.62-5.18,1.49,1.49,0,0,0,.39-.17Z" fill="#fff"/><path d="M1.72,113.82c.88-1.89,2.37-2.47,4.4-2.43,4.73.1,9.46,0,14.19,0h1.27V97.6a30.37,30.37,0,0,0,13.08,0v13.75H54.32V97.73c2.24.21,4.4.54,6.55.55s4.27-.31,6.5-.49v13.55H80.46v-6.47c-1,0-2,0-3,0a3.27,3.27,0,1,1,0-6.54c1,0,2,0,3.11,0V88.84a3.3,3.3,0,0,1,3.58-3.61q9.61,0,19.21,0c2.32,0,3.62,1.33,3.63,3.68v9.41h3a3.29,3.29,0,1,1,0,6.55H107v6.55h2.32c2.63,0,4.15,1.18,4.16,3.25S112,118,109.38,118q-51.63,0-103.26,0c-2,0-3.52-.54-4.4-2.43Zm98.61-2.45v-6.43H87.16v6.43Z" fill="#fff"/></svg>