<svg id="Capa_1" data-name="Capa 1" xmlns="http://www.w3.org/2000/svg" viewBox="0 0 120 120"><path d="M73.3,88.73c-13-13-25.75-25.74-38.58-38.58-.16.15-.35.32-.52.5C29,55.84,23.78,61,18.61,66.24a6.78,6.78,0,0,1-2.16,1.13,2.49,2.49,0,0,1-2.69-.26,12.38,12.38,0,0,1-2.55-2.06c-.93-1-1.94-2-2.83-3a9.45,9.45,0,0,1-.82-10.91l.28-.49a32.88,32.88,0,0,1-2.2-2.8,9.41,9.41,0,0,1-1.29-6.71,10.33,10.33,0,0,1,3.21-5.85c1.48-1.43,2.92-2.9,4.37-4.35.14-.13.26-.27.3-.31C11,29.37,10,28.06,8.69,27c-1.53-1.34-2.08-3.2-3-4.9a.86.86,0,0,1,.06-.6c.4-1.11.81-2.22,1.25-3.32a2.47,2.47,0,0,1,.54-.84Q11.27,13.57,15,9.87a6.17,6.17,0,0,1,4.36-1.93A6.1,6.1,0,0,1,23.73,9.8c1.39,1.39,2.75,2.82,4.13,4.23.16.17.29.35.48.57,1.25-1.23,2.42-2.38,3.61-3.53.79-.76,1.56-1.55,2.41-2.25a9.66,9.66,0,0,1,8.9-1.89A8.84,8.84,0,0,1,47.8,9.7a.65.65,0,0,0,1,.13A9.44,9.44,0,0,1,57.27,9a9.65,9.65,0,0,1,3.53,2.32c1.14,1.11,2.26,2.24,3.38,3.36a4,4,0,0,1,0,6q-7.83,7.86-15.67,15.7a5.94,5.94,0,0,1-.48.39L86.67,75.38a2.05,2.05,0,0,1,.3-.48Q94.79,67,102.63,59.19a4,4,0,0,1,5.08-.79,4.71,4.71,0,0,1,.89.71c.61.58,1.18,1.22,1.81,1.79a19.29,19.29,0,0,1,3.7,4.64,2.68,2.68,0,0,1,.31.83c.16.74.33,1.49.42,2.24a10.23,10.23,0,0,1,0,1.75c0,.34-.14.67-.17,1a6,6,0,0,1-1.43,3.36c.84,1.14,1.63,2.23,2.45,3.29a7,7,0,0,1,1,2.24,10.89,10.89,0,0,1-.14,5.75,1.5,1.5,0,0,1-.15.42,21.36,21.36,0,0,1-3.14,4.21c-1.82,1.7-3.55,3.52-5.31,5.29-.15.14-.29.3-.46.48.16.17.3.33.45.47,1.39,1.4,2.79,2.78,4.17,4.19a3.94,3.94,0,0,1,0,5.74c-2.37,2.38-4.73,4.79-7.19,7.08a15,15,0,0,1-2.87,1.73.33.33,0,0,1-.29,0c-1-.49-2.15-.7-3-1.55l-4.39-4.58c-.31.28-.48.43-.64.59-1.88,1.87-3.76,3.72-5.63,5.6a11.22,11.22,0,0,1-3.87,2.71,9.94,9.94,0,0,1-11.41-3c-.41.2-.77.35-1.12.54a8.54,8.54,0,0,1-5.14,1.09,10.87,10.87,0,0,1-3.78-1.12c-2.22-1.16-3.85-3.1-5.58-4.87a12.72,12.72,0,0,1-1.62-2.63.73.73,0,0,1,0-.54c.24-.75.48-1.5.77-2.22a2.39,2.39,0,0,1,.54-.77L72.67,89.18A6.37,6.37,0,0,1,73.3,88.73Z" fill="#fff"/></svg>