<?xml version="1.0" encoding="UTF-8"?>
<svg id="Capa_1" data-name="Capa 1" xmlns="http://www.w3.org/2000/svg" viewBox="0 0 32 32">
  <defs>
    <style>
      .cls-1 {
        fill: #785e60;
      }
    </style>
  </defs>
  <path class="cls-1" d="M3.16,26.45c.21-.08,.42-.2,.64-.22,.35-.04,.71,0,1.11,0,0-.17,0-.32,0-.46,0-3.7,0-7.39,0-11.09,0-.45,.14-.75,.48-1.04,2.22-1.93,4.42-3.89,6.63-5.83,1.32-1.17,2.65-2.33,3.97-3.49,.36-.32,.49-.32,.85,0,2.4,2.11,4.8,4.23,7.2,6.34,1.17,1.03,2.34,2.07,3.52,3.09,.25,.22,.36,.46,.36,.79,0,3.73,0,7.47,0,11.2v.51c.42,0,.83,0,1.23,0,.3,0,.52,.1,.52,.41,0,.31-.23,.42-.52,.43-.06,0-.13,0-.19,0-8.36,0-16.71,0-25.07,0-.24,0-.49-.14-.73-.21,0-.13,0-.25,0-.38Zm13.68-.26h8.48c0-.18,0-.33,0-.48,0-3.42,0-6.83,0-10.25,0-.26-.07-.44-.27-.62-2.49-2.18-4.98-4.37-7.46-6.56-.39-.34-.77-.68-1.17-1.03-.41,.36-.79,.7-1.17,1.03-2.5,2.2-4.99,4.39-7.48,6.6-.13,.11-.23,.34-.23,.51-.01,3.45,0,6.91,0,10.36,0,.15,0,.29,0,.43H16c0-1.07,0-2.11,0-3.15,0-.11-.02-.24-.09-.31-.43-.45-.87-.88-1.31-1.31-1.11,.57-2.12,.35-2.97-.42-1.45-1.31-1.95-3.09-2.25-4.94-.05-.31,.17-.5,.5-.44,.53,.09,1.07,.19,1.59,.34,1.13,.35,2.2,.82,3.09,1.64,.74,.7,1.28,2.03,.7,3.07-.03,.06-.05,.17-.02,.2,.23,.24,.47,.46,.72,.71,.07-.37,.11-.68,.19-.98,.19-.72,.71-1.21,1.22-1.71,.08-.08,.16-.27,.12-.37-.35-.9-.13-1.69,.49-2.35,1.11-1.19,2.59-1.63,4.13-1.9,.32-.06,.52,.2,.48,.52-.02,.12-.05,.25-.07,.37-.29,1.28-.69,2.52-1.62,3.51-.6,.64-1.36,1.03-2.25,.76-.43-.13-.64,0-.93,.27-.56,.55-.89,1.18-.89,1.98,.01,1.5,0,2.99,0,4.51Zm-.42-21.15c-.78,.69-1.54,1.36-2.3,2.03-2.67,2.35-5.34,4.69-8.01,7.04-.18,.16-.37,.3-.37,.61,.01,3.71,0,7.42,0,11.12,0,.12,0,.24,0,.36h.95c0-.19,0-.36,0-.52,0-3.48,0-6.96,0-10.44,0-.37,.09-.64,.39-.89,2.96-2.59,5.91-5.19,8.86-7.79,.42-.37,.54-.37,.97,.01,2.94,2.59,5.88,5.18,8.83,7.77,.29,.25,.4,.52,.4,.89,0,3.49,0,6.98,0,10.48,0,.16,0,.32,0,.5h.93c0-.08,.02-.13,.02-.18,0-3.78,0-7.57,0-11.35,0-.15-.11-.33-.23-.44-.99-.89-1.99-1.77-2.99-2.65-2.47-2.17-4.94-4.34-7.44-6.54Zm-1.88,15.14c.32-.53,.01-1.48-.59-2.02-.66-.58-1.42-.98-2.24-1.25-.45-.15-.9-.27-1.41-.42,.23,1.04,.49,1.97,1.02,2.78,.32,.49,.73,.94,1.18,1.31,.39,.32,.9,.42,1.45,.18-.11-.12-.19-.21-.28-.3-.48-.49-.97-.97-1.45-1.46-.28-.28-.22-.68,.12-.74,.15-.03,.37,.07,.49,.19,.58,.55,1.13,1.12,1.72,1.72Zm3.67-2.16c.11-.09,.19-.16,.27-.24,.4-.39,.79-.79,1.19-1.18,.18-.18,.38-.19,.57-.01,.19,.18,.19,.38,.03,.57-.09,.11-.19,.2-.29,.3-.38,.38-.76,.76-1.17,1.18,.52,.11,.92-.03,1.24-.3,.94-.8,1.28-1.92,1.61-3.14-1.2,.33-2.29,.67-3.09,1.57-.3,.33-.46,.74-.34,1.26Z"/>
</svg>